<?xml version="1.0" encoding="UTF-8"?>
<!DOCTYPE svg PUBLIC "-//W3C//DTD SVG 1.0//EN" "http://www.w3.org/TR/2001/REC-SVG-20010904/DTD/svg10.dtd">
<!-- Creator: CorelDRAW 2021 (64-Bit) -->
<svg xmlns="http://www.w3.org/2000/svg" xml:space="preserve" width="1559px" height="1134px" version="1.0" style="shape-rendering:geometricPrecision; text-rendering:geometricPrecision; image-rendering:optimizeQuality; fill-rule:evenodd; clip-rule:evenodd"
viewBox="0 0 1559 1133.82"
 xmlns:xlink="http://www.w3.org/1999/xlink"
 xmlns:xodm="http://www.corel.com/coreldraw/odm/2003">
 <defs>
  <style type="text/css">
   <![CDATA[
    .fil0 {fill:#1034A6}
    .fil1 {fill:#FF8000}
    .fil2 {fill:white}
    .fil3 {fill:#5B5B5B;fill-rule:nonzero}
   ]]>
  </style>
 </defs>
 <g id="Layer_x0020_1">
  <metadata id="CorelCorpID_0Corel-Layer"/>
  <g id="_1660688897328">
   <path class="fil0" d="M779.22 8.16c198.65,0 359.69,161.04 359.69,359.69 0,198.65 -161.04,359.67 -359.69,359.67 -198.65,0 -359.69,-161.02 -359.69,-359.67 0,-198.65 161.04,-359.69 359.69,-359.69z"/>
   <path class="fil1" d="M779.22 102.7l105.49 105.49c-30.45,-19.98 -66.65,-31.56 -105.49,-31.56 -27.27,0 -53.2,5.68 -76.77,16 -10.03,4.37 -19.62,9.59 -28.7,15.54l105.47 -105.47 0 0z"/>
   <path class="fil2" d="M877.16 305.55c9.93,13.6 17.21,29.36 21.07,46.42l47.42 0c-4.59,-28.55 -16.07,-54.72 -32.61,-76.72l41.86 -35.32c29.62,38.67 47.27,87.35 47.27,140.26 0,79.61 -39.99,149.68 -100.54,190.41l-0.92 56.23c88.2,-45.44 148.68,-138.82 148.68,-246.64 0,-64.58 -21.71,-124 -58.05,-171 -10.15,-13.11 -21.41,-25.25 -33.65,-36.27l-36.98 31.22 -42.9 36.2c-27.72,-20.44 -61.79,-32.51 -98.59,-32.51 -23.53,0 -45.94,4.93 -66.28,13.81 -12.24,5.37 -23.77,12.17 -34.34,20.2l-43.6 -35.37 -37.58 -30.49c-12.22,11.36 -23.41,23.84 -33.41,37.29 -34.5,46.35 -54.97,104.2 -54.97,166.91 0,106.35 58.83,198.63 145.07,244.74l0.92 -55.53c-59.56,-40.91 -98.74,-110.37 -98.74,-189.21 0,-51.37 16.63,-98.79 44.72,-136.88l42.51 34.48c-20.73,28.65 -32.99,64.04 -32.99,102.4 0,95.18 75.53,172.36 168.69,172.36 67.78,0 126.2,-40.84 153.03,-99.74 6.99,-15.39 11.84,-31.97 14.13,-49.41l-47.11 0 -119.57 0 -0.29 49.41 99.18 0c-22.17,31.59 -58.42,52.2 -99.37,52.2 -67.48,0 -122.15,-55.89 -122.15,-124.82 0,-27.16 8.5,-52.32 22.92,-72.81l60.38 49 39.07 31.68 38.89 -32.85 28.89 -24.4c-8.13,-14.83 -20.83,-26.83 -36.22,-34.06l-31.71 26.78 -62.45 -50.67c12.19,-7.41 25.76,-12.72 40.21,-15.42 7.18,-1.36 14.59,-2.06 22.16,-2.06 22.24,0 43.08,6.07 61.04,16.68 14.42,8.52 26.97,19.95 36.9,33.5l0.01 0z"/>
   <path class="fil1" d="M779.22 657.06l105.49 -105.49c-30.45,19.98 -66.65,31.56 -105.49,31.56 -27.27,0 -53.2,-5.7 -76.77,-16 -10.03,-4.39 -19.62,-9.59 -28.7,-15.56l105.47 105.49z"/>
   <path class="fil0" d="M317.04 995.07l0 -180.73c0,-12.24 -10.24,-17.65 -23.35,-17.65 -9.96,0 -14.5,2.84 -19.35,9.1l-110.42 145.43 -109.57 -145.43c-4.83,-6.53 -10.25,-9.1 -20.49,-9.1 -13.38,0 -23.34,5.41 -23.34,17.65l0 180.73 39.29 0 0 -127.8 94.47 123.82c4.56,5.68 10.53,8.25 19.08,8.25 8.52,0 14.52,-2.57 19.06,-8.25l94.78 -123.82 0 127.8 39.84 0zm443.58 -71.5l0 -43.46 44.96 0 0 -0.02 43.24 0 0 48.38c0,48.95 -16.77,66.6 -74.56,66.6l-76.55 0c-57.2,0 -74,-17.65 -74,-66.6l0 -60.91c0,-48.95 16.8,-66.6 74,-66.6l50.65 0 0 37.29 -48.66 0c-25.9,0 -33.02,7.68 -33.02,31.3l0 57.2c0,25.62 7.7,31.32 33.02,31.32l73.15 0c24.19,0 32.73,-5.41 32.73,-33.02l0 -1.48 -44.96 0 0 0zm787.29 -122.61l-51.52 0 -91.63 150 -91.92 -150 -52.37 0 111.56 179.88c7.12,11.66 14.79,18.5 31.88,18.5 16.8,0 24.76,-6.84 31.88,-18.5l112.12 -179.88zm-265.76 194.11l0 -36.73 -135.47 0c-25.33,0 -31.01,-6.24 -31.01,-29.6l0 -13.64 165.34 0 0 -34.46 -165.34 0 0 -13.08c0,-22.48 5.97,-29.89 31.01,-29.89l47.83 0 0 -36.71 -47.83 0c-57.2,0 -73.98,17.65 -73.98,66.6l0 60.91c0,48.95 16.78,66.6 73.98,66.6l135.47 0zm-220.79 0l0 -37 -115.25 0c-27.34,0 -34.72,-8.84 -34.72,-31.32l0 -125.79 -42.97 0 0 127.51c0,48.95 16.77,66.6 73.98,66.6l118.96 0 0 0zm-495.65 0l50.09 0 -112.12 -179.3c-6.83,-11.12 -15.08,-19.08 -32.44,-19.08 -17.65,0 -25.91,7.96 -32.75,19.08l-112.71 179.3 49.83 0 27.6 -44.7 134.34 0 28.16 44.7 0 0zm-95.34 -154.56l46.95 76.58 -93.91 0 46.95 -76.58 0.01 0z"/>
   <path class="fil3" d="M328.65 1054.72l59.02 0c4.54,0 6.82,-2.25 6.82,-6.79 0,-4.45 -2.28,-6.66 -6.82,-6.66l-60.65 0c-14.13,0 -24.98,4.03 -32.53,12.09 -7.57,8.07 -11.34,18.41 -11.34,31.08 0,12.65 3.77,23.02 11.34,31.08 7.55,8.06 18.4,12.09 32.53,12.09l60.65 0c4.54,0 6.82,-2.23 6.82,-6.68 0,-4.51 -2.28,-6.77 -6.82,-6.77l-59.02 0c-8.52,0 -15.3,-2.09 -20.34,-6.29 -5.03,-4.2 -8.19,-9.78 -9.43,-16.78l79.01 0c2.13,0 3.81,-0.58 5,-1.72 1.21,-1.14 1.8,-2.79 1.8,-4.93 0,-4.44 -2.26,-6.65 -6.8,-6.65l-79.01 0c1.24,-6.99 4.4,-12.6 9.43,-16.78 5.04,-4.2 11.82,-6.29 20.34,-6.29l0 0zm124.5 72.89l52.32 0c2.16,0 3.84,-0.58 5.03,-1.73 1.19,-1.16 1.8,-2.81 1.8,-4.95 0,-4.51 -2.26,-6.77 -6.83,-6.77l-50.72 0c-9.75,0 -17.23,-2.77 -22.5,-8.33 -5.25,-5.56 -7.87,-12.67 -7.87,-21.39l0 -35.64c0,-5.03 -2.52,-7.53 -7.57,-7.53 -5.03,0 -7.55,2.5 -7.55,7.53l0 35.64c0,12.65 3.81,23.02 11.41,31.08 7.59,8.06 18.42,12.09 32.48,12.09l0 0zm112.46 -72.89l59.02 0c4.57,0 6.83,-2.25 6.83,-6.79 0,-4.45 -2.26,-6.66 -6.83,-6.66l-60.62 0c-14.13,0 -24.98,4.03 -32.56,12.09 -7.55,8.07 -11.34,18.41 -11.34,31.08 0,12.65 3.79,23.02 11.34,31.08 7.58,8.06 18.43,12.09 32.56,12.09l60.62 0c4.57,0 6.83,-2.23 6.83,-6.68 0,-4.51 -2.26,-6.77 -6.83,-6.77l-59.02 0c-8.52,0 -15.29,-2.09 -20.32,-6.29 -5.05,-4.2 -8.18,-9.78 -9.44,-16.78l79 0c2.13,0 3.81,-0.58 5.02,-1.72 1.19,-1.14 1.8,-2.79 1.8,-4.93 0,-4.44 -2.28,-6.65 -6.82,-6.65l-79 0c1.26,-6.99 4.39,-12.6 9.44,-16.78 5.03,-4.2 11.8,-6.29 20.32,-6.29l0 0zm130.57 69.81c1.68,2.04 3.81,3.08 6.46,3.08 2.72,0 4.93,-1.04 6.58,-3.08l54.68 -71.29c1.31,-1.58 1.99,-3.18 1.99,-4.8 0,-4.79 -2.45,-7.17 -7.33,-7.17 -2.24,0 -4.13,1.02 -5.71,3.09l-49.84 65.72 -49.61 -65.6c-1.57,-2.14 -3.54,-3.21 -5.94,-3.21 -5.05,0 -7.56,2.5 -7.56,7.53 0,1.65 0.66,3.28 1.97,4.93l54.31 70.8zm178.21 -4.45c0,5 2.53,7.53 7.55,7.53 5.05,0 7.58,-2.53 7.58,-7.53l0 -35.64c0,-12.67 -3.82,-23.01 -11.42,-31.08 -7.59,-8.06 -18.42,-12.09 -32.48,-12.09l-28.28 0c-14.06,0 -24.87,4.03 -32.49,12.09 -7.6,8.07 -11.41,18.41 -11.41,31.08l0 35.64c0,5 2.53,7.53 7.57,7.53 5.05,0 7.56,-2.53 7.56,-7.53l0 -18.86 85.82 0 0 18.86 0 0zm-85.83 -35.64c0,-8.71 2.63,-15.85 7.89,-21.39 5.25,-5.56 12.75,-8.33 22.51,-8.33l25.03 0c9.76,0 17.27,2.77 22.51,8.33 5.27,5.54 7.89,12.68 7.89,21.39l0 3.93 -85.83 0 0 -3.93 0 0zm219 -29.72c4.54,0 6.82,-2.25 6.82,-6.79 0,-4.45 -2.28,-6.66 -6.82,-6.66l-102.31 0c-4.54,0 -6.82,2.21 -6.82,6.66 0,4.54 2.28,6.79 6.82,6.79l43.65 0 0 65.36c0,5 2.48,7.53 7.46,7.53 5.02,0 7.55,-2.53 7.55,-7.53l0 -65.36 43.65 0 0 0zm91.38 -13.45l-32.72 0c-14.16,0 -24.99,4.03 -32.56,12.09 -7.55,8.07 -11.34,18.41 -11.34,31.08 0,12.65 3.79,23.02 11.34,31.08 7.57,8.06 18.4,12.09 32.56,12.09l32.72 0c14.14,0 24.99,-4.03 32.56,-12.09 7.55,-8.06 11.34,-18.43 11.34,-31.08 0,-12.67 -3.79,-23.01 -11.34,-31.08 -7.57,-8.06 -18.42,-12.09 -32.56,-12.09zm28.77 43.17c0,8.72 -2.59,15.83 -7.81,21.39 -5.2,5.56 -12.7,8.33 -22.44,8.33l-29.64 0c-9.76,0 -17.27,-2.77 -22.51,-8.33 -5.24,-5.56 -7.87,-12.67 -7.87,-21.39 0,-8.71 2.63,-15.85 7.87,-21.39 5.24,-5.56 12.75,-8.33 22.51,-8.33l29.64 0c9.74,0 17.24,2.77 22.44,8.33 5.22,5.54 7.81,12.68 7.81,21.39zm132.45 35.64c0,5 2.5,7.53 7.55,7.53 5.05,0 7.57,-2.53 7.57,-7.53l0 -8.52c0,-5 -1.21,-9.49 -3.67,-13.43 -2.42,-3.95 -5.87,-6.79 -10.34,-8.52 4.54,-1.96 8.01,-5 10.42,-9.05 2.38,-4.08 3.59,-8.79 3.59,-14.13 0,-7.41 -2.21,-13.45 -6.63,-18.14 -4.44,-4.68 -10.78,-7.02 -19.03,-7.02l-81.96 0c-5.05,0 -7.58,2.51 -7.58,7.53l0 71.28c0,5.01 2.53,7.53 7.58,7.53 5.02,0 7.55,-2.52 7.55,-7.53l0 -23.67 67.2 0c5.88,0 10.29,1.56 13.28,4.69 2.96,3.11 4.47,7.26 4.47,12.45l0 6.53 0 0zm-14.52 -65.36c4.63,0 8.18,1.32 10.66,3.94 2.5,2.64 3.73,6.04 3.73,10.24 0,4.11 -1.23,7.48 -3.73,10.1 -2.48,2.65 -6.03,3.96 -10.66,3.96l-70.44 0 0 -28.24 70.44 0z"/>
  </g>
 </g>
</svg>
