<?xml version="1.0" encoding="UTF-8"?>
<!DOCTYPE svg PUBLIC "-//W3C//DTD SVG 1.0//EN" "http://www.w3.org/TR/2001/REC-SVG-20010904/DTD/svg10.dtd">
<!-- Creator: CorelDRAW 2021 (64-Bit) -->
<svg xmlns="http://www.w3.org/2000/svg" xml:space="preserve" width="236px" height="236px" version="1.0" style="shape-rendering:geometricPrecision; text-rendering:geometricPrecision; image-rendering:optimizeQuality; fill-rule:evenodd; clip-rule:evenodd"
viewBox="0 0 236 236"
 xmlns:xlink="http://www.w3.org/1999/xlink"
 xmlns:xodm="http://www.corel.com/coreldraw/odm/2003">
 <defs>
  <style type="text/css">
   <![CDATA[
    .fil0 {fill:#1034A6}
    .fil1 {fill:#FF8000}
    .fil2 {fill:white}
   ]]>
  </style>
 </defs>
 <g id="Layer_x0020_1">
  <metadata id="CorelCorpID_0Corel-Layer"/>
  <g id="_2163468862640">
   <path class="fil0" d="M118 0c65.17,0 118,52.83 118,118 0,65.17 -52.83,118 -118,118 -65.17,0 -118,-52.83 -118,-118 0,-65.17 52.83,-118 118,-118z"/>
   <path class="fil1" d="M118 31.02l34.6 34.6c-9.98,-6.55 -21.85,-10.35 -34.6,-10.35 -8.94,0 -17.45,1.87 -25.19,5.25 -3.29,1.43 -6.43,3.14 -9.41,5.1l34.6 -34.6z"/>
   <path class="fil2" d="M150.13 97.57c3.26,4.46 5.65,9.62 6.92,15.22l15.55 0c-1.51,-9.36 -5.27,-17.95 -10.7,-25.17l13.74 -11.59c9.71,12.69 15.5,28.66 15.5,46.02 0,26.12 -13.11,49.11 -32.98,62.47l-0.31 18.44c28.94,-14.91 48.79,-45.54 48.79,-80.91 0,-21.19 -7.12,-40.68 -19.05,-56.1 -3.33,-4.3 -7.02,-8.28 -11.04,-11.9l-12.13 10.24 -14.07 11.88c-9.1,-6.71 -20.27,-10.66 -32.35,-10.66 -7.72,0 -15.07,1.61 -21.74,4.53 -4.02,1.76 -7.8,3.98 -11.27,6.62l-14.3 -11.61 -12.33 -10c-4.01,3.73 -7.68,7.82 -10.96,12.24 -11.32,15.21 -18.04,34.18 -18.04,54.76 0,34.88 19.31,65.16 47.59,80.29l0.3 -18.22c-19.53,-13.42 -32.39,-36.21 -32.39,-62.07 0,-16.86 5.46,-32.41 14.68,-44.91l13.94 11.31c-6.8,9.4 -10.82,21.02 -10.82,33.6 0,31.22 24.78,56.54 55.34,56.54 22.23,0 41.4,-13.4 50.2,-32.72 2.3,-5.04 3.89,-10.49 4.64,-16.21l-15.46 0 -39.22 0 -0.1 16.21 32.54 0c-7.27,10.37 -19.16,17.12 -32.6,17.12 -22.13,0 -40.07,-18.33 -40.07,-40.94 0,-8.92 2.78,-17.17 7.52,-23.89l19.81 16.07 12.81 10.4 12.76 -10.78 9.48 -8c-2.67,-4.87 -6.84,-8.8 -11.88,-11.18l-10.41 8.78 -20.48 -16.61c4,-2.44 8.45,-4.18 13.19,-5.06 2.36,-0.45 4.79,-0.68 7.27,-0.68 7.29,0 14.13,1.99 20.02,5.47 4.73,2.79 8.85,6.55 12.11,11z"/>
   <path class="fil1" d="M118 212.88l34.6 -34.61c-9.98,6.56 -21.85,10.36 -34.6,10.36 -8.94,0 -17.45,-1.87 -25.19,-5.25 -3.29,-1.44 -6.43,-3.15 -9.41,-5.1l34.6 34.6z"/>
  </g>
 </g>
</svg>
